<?xml version="1.0" encoding="utf-8"?>
<!-- Generator: Adobe Illustrator 29.7.1, SVG Export Plug-In . SVG Version: 9.03 Build 0)  -->
<svg version="1.0" id="Layer_1" xmlns="http://www.w3.org/2000/svg" xmlns:xlink="http://www.w3.org/1999/xlink" x="0px" y="0px"
	 viewBox="0 0 794.11 321.23" style="enable-background:new 0 0 794.11 321.23;" xml:space="preserve">
<style type="text/css">
	.st0{fill:#016992;}
	.st1{fill:#FFFFFF;}
</style>
<g>
	<g>
		<g transform="translate(451.408984, 488.002603)">
			<g>
				<path d="M1.77-236.87c0-3.09,0.62-5.8,1.88-8.1c1.26-2.32,3.03-4.09,5.29-5.33c2.26-1.25,4.84-1.88,7.75-1.88
					c3.73,0,6.85,0.98,9.35,2.94c2.51,1.96,4.17,4.72,4.96,8.27h-9.71c-0.82-2.28-2.41-3.42-4.75-3.42c-1.68,0-3.02,0.66-4.02,1.96
					c-0.99,1.29-1.48,3.15-1.48,5.56c0,2.42,0.49,4.28,1.48,5.58c1,1.29,2.34,1.94,4.02,1.94c2.34,0,3.93-1.14,4.75-3.42H31
					c-0.79,3.49-2.45,6.22-4.98,8.21c-2.52,1.99-5.62,2.98-9.33,2.98c-2.91,0-5.49-0.61-7.75-1.85c-2.27-1.25-4.03-3.03-5.29-5.33
					C2.4-231.08,1.77-233.78,1.77-236.87z"/>
			</g>
		</g>
	</g>
	<g>
		<g transform="translate(475.606576, 488.002603)">
			<g>
				<path d="M29.94-252.08c3.42,0,6.15,1.14,8.21,3.4c2.07,2.25,3.1,5.35,3.1,9.29v17.4h-9.08v-16.17c0-1.98-0.52-3.53-1.54-4.62
					c-1.03-1.11-2.42-1.67-4.17-1.67c-1.74,0-3.12,0.56-4.17,1.67c-1.03,1.1-1.54,2.64-1.54,4.62v16.17h-9.1v-39.46h9.1v13.71
					c0.93-1.32,2.19-2.36,3.79-3.15C26.14-251.68,27.94-252.08,29.94-252.08z"/>
			</g>
		</g>
	</g>
	<g>
		<g transform="translate(502.5639, 488.002603)">
			<g>
				<path d="M48.68-237.35c0,0.85-0.05,1.74-0.15,2.67H27.89c0.14,1.85,0.73,3.27,1.77,4.25c1.05,0.97,2.34,1.46,3.88,1.46
					c2.28,0,3.86-0.96,4.75-2.9h9.71c-0.5,1.96-1.41,3.72-2.71,5.29c-1.29,1.56-2.92,2.78-4.88,3.67c-1.95,0.89-4.12,1.33-6.54,1.33
					c-2.92,0-5.52-0.61-7.79-1.85c-2.28-1.25-4.06-3.03-5.33-5.33c-1.28-2.32-1.92-5.02-1.92-8.1c0-3.09,0.62-5.8,1.88-8.1
					c1.26-2.32,3.03-4.09,5.31-5.33c2.28-1.25,4.9-1.88,7.85-1.88c2.88,0,5.43,0.6,7.67,1.81c2.25,1.21,4,2.94,5.25,5.19
					C48.04-242.94,48.68-240.33,48.68-237.35z M39.35-239.74c0-1.57-0.54-2.81-1.6-3.73c-1.06-0.93-2.39-1.4-4-1.4
					c-1.53,0-2.82,0.45-3.88,1.33c-1.04,0.89-1.69,2.16-1.94,3.79H39.35z"/>
			</g>
		</g>
	</g>
	<g>
		<g transform="translate(527.201449, 488.002603)">
			<g>
				<path d="M66.81-252.08c3.71,0,6.65,1.12,8.83,3.38c2.19,2.24,3.29,5.34,3.29,9.31v17.4h-9.08v-16.17c0-1.92-0.51-3.4-1.52-4.44
					c-1.02-1.05-2.41-1.58-4.19-1.58c-1.78,0-3.18,0.53-4.19,1.58c-1,1.04-1.5,2.52-1.5,4.44v16.17h-9.08v-16.17
					c0-1.92-0.51-3.4-1.52-4.44c-1.02-1.05-2.41-1.58-4.19-1.58c-1.78,0-3.18,0.53-4.19,1.58c-1.02,1.04-1.52,2.52-1.52,4.44v16.17
					h-9.1v-29.75h9.1v3.73c0.93-1.25,2.14-2.23,3.62-2.96c1.5-0.73,3.19-1.1,5.08-1.1c2.23,0,4.23,0.48,5.98,1.44
					c1.76,0.96,3.15,2.33,4.15,4.1c1.03-1.62,2.43-2.95,4.21-3.98C62.77-251.56,64.71-252.08,66.81-252.08z"/>
			</g>
		</g>
	</g>
	<g>
		<g transform="translate(569.557244, 488.002603)">
			<g>
				<path d="M47.55-254.85c-1.6,0-2.91-0.47-3.92-1.42c-1.02-0.94-1.52-2.1-1.52-3.48c0-1.43,0.51-2.61,1.52-3.56
					c1.01-0.94,2.32-1.42,3.92-1.42c1.57,0,2.85,0.47,3.85,1.42c1.01,0.95,1.52,2.14,1.52,3.56c0,1.38-0.51,2.54-1.52,3.48
					C50.41-255.32,49.12-254.85,47.55-254.85z M52.07-251.74v29.75h-9.1v-29.75H52.07z"/>
			</g>
		</g>
	</g>
	<g>
		<g transform="translate(581.356068, 488.002603)">
			<g>
				<path d="M59.01-221.58c-2.6,0-4.91-0.44-6.94-1.33c-2.03-0.89-3.64-2.1-4.81-3.65c-1.17-1.54-1.82-3.27-1.96-5.19h9.02
					c0.09,1.03,0.57,1.86,1.42,2.5c0.86,0.64,1.92,0.96,3.17,0.96c1.14,0,2.01-0.22,2.62-0.67c0.62-0.44,0.94-1.02,0.94-1.73
					c0-0.86-0.45-1.49-1.33-1.9c-0.89-0.42-2.33-0.86-4.31-1.35c-2.14-0.5-3.93-1.03-5.35-1.58c-1.42-0.55-2.64-1.42-3.67-2.6
					c-1.03-1.19-1.54-2.8-1.54-4.83c0-1.71,0.47-3.26,1.42-4.67c0.94-1.4,2.32-2.51,4.15-3.33c1.83-0.82,4.01-1.23,6.54-1.23
					c3.73,0,6.68,0.93,8.83,2.77c2.15,1.85,3.39,4.3,3.71,7.35h-8.44c-0.14-1.03-0.59-1.84-1.35-2.44
					c-0.77-0.61-1.77-0.92-3.02-0.92c-1.06,0-1.87,0.21-2.44,0.62c-0.57,0.41-0.85,0.96-0.85,1.67c0,0.86,0.45,1.51,1.35,1.94
					c0.9,0.42,2.31,0.84,4.23,1.27c2.21,0.57,4.01,1.14,5.4,1.69c1.39,0.54,2.6,1.43,3.65,2.67c1.05,1.22,1.59,2.86,1.62,4.92
					c0,1.75-0.49,3.31-1.46,4.69c-0.97,1.36-2.38,2.43-4.21,3.21C63.55-221.97,61.42-221.58,59.01-221.58z"/>
			</g>
		</g>
	</g>
	<g>
		<g transform="translate(603.673854, 488.002603)">
			<g>
				<path d="M70.92-229.72v7.73h-4.65c-3.31,0-5.89-0.8-7.73-2.42c-1.85-1.62-2.77-4.27-2.77-7.94v-11.83h-3.62v-7.56h3.62v-7.27
					h9.12v7.27h5.96v7.56H64.9v11.94c0,0.89,0.21,1.54,0.62,1.94c0.43,0.39,1.15,0.58,2.15,0.58H70.92z"/>
			</g>
		</g>
	</g>
	<g>
		<g transform="translate(619.912241, 488.002603)">
			<g>
				<path d="M71.86-221.58c-2.6,0-4.91-0.44-6.94-1.33c-2.03-0.89-3.64-2.1-4.81-3.65c-1.17-1.54-1.82-3.27-1.96-5.19h9.02
					c0.09,1.03,0.57,1.86,1.42,2.5c0.86,0.64,1.92,0.96,3.17,0.96c1.14,0,2.01-0.22,2.62-0.67c0.62-0.44,0.94-1.02,0.94-1.73
					c0-0.86-0.45-1.49-1.33-1.9c-0.89-0.42-2.33-0.86-4.31-1.35c-2.14-0.5-3.93-1.03-5.35-1.58c-1.42-0.55-2.64-1.42-3.67-2.6
					c-1.03-1.19-1.54-2.8-1.54-4.83c0-1.71,0.47-3.26,1.42-4.67c0.94-1.4,2.32-2.51,4.15-3.33c1.83-0.82,4.01-1.23,6.54-1.23
					c3.73,0,6.68,0.93,8.83,2.77c2.15,1.85,3.39,4.3,3.71,7.35h-8.44c-0.14-1.03-0.59-1.84-1.35-2.44
					c-0.77-0.61-1.77-0.92-3.02-0.92c-1.06,0-1.87,0.21-2.44,0.62c-0.57,0.41-0.85,0.96-0.85,1.67c0,0.86,0.45,1.51,1.35,1.94
					c0.9,0.42,2.31,0.84,4.23,1.27c2.21,0.57,4.01,1.14,5.4,1.69c1.39,0.54,2.6,1.43,3.65,2.67c1.05,1.22,1.59,2.86,1.62,4.92
					c0,1.75-0.49,3.31-1.46,4.69c-0.97,1.36-2.38,2.43-4.21,3.21C76.4-221.97,74.27-221.58,71.86-221.58z"/>
			</g>
		</g>
	</g>
	<g>
		<path d="M113.77,94.76c-34.21,6.06-31.92,44.32-31.92,44.32v65.84h23.72v-67.84c0,0,4.43-30.15,33.92-13.52l16.85-18.62
			C156.34,104.94,144.49,89.31,113.77,94.76z"/>
		<path d="M196.74,93.6c-23.69,0-42.9,19.21-42.9,42.9v29.13c0,23.69,19.21,42.9,42.9,42.9s42.9-19.21,42.9-42.9V136.5
			C239.64,112.81,220.43,93.6,196.74,93.6z M216.89,165.26c0,11.13-9.02,20.15-20.15,20.15s-20.15-9.02-20.15-20.15v-26.14
			c0-11.13,9.02-20.15,20.15-20.15s20.15,9.02,20.15,20.15V165.26z"/>
		<g>
			<path d="M335.79,123.43c-6.57-17.41-24.84-29.1-45.46-29.1s-39.28,11.69-45.85,29.1l-0.35,0.93l16.51,15.7l1-1.46
				c4.76-6.96,8.63-11.79,13.38-14.83v86.25h30.27v-86.25c4.74,3.04,8.62,7.87,13.38,14.83l1,1.46l16.5-15.7L335.79,123.43z
				 M320.12,135.47c-5.29-7.58-9.69-12.62-15.68-15.6l-2.17-1.08v88.24H278v-88.24l-2.17,1.08c-6,2.99-10.4,8.02-15.68,15.6
				l-12.5-11.9c6.43-15.73,23.62-26.24,42.68-26.24v0c19.01,0,35.87,10.5,42.3,26.24L320.12,135.47z"/>
		</g>
		<path d="M403.11,165.26c0,11.13-9.02,20.15-20.15,20.15s-20.15-9.02-20.15-20.15V95.83h-22.75v69.8c0,23.69,19.21,42.9,42.9,42.9
			s42.9-19.21,42.9-42.9v-69.8h-22.75V165.26z"/>
		<path d="M479.85,95.83c-23.69,0-42.9,19.21-42.9,42.9v69.8h22.75V139.1c0-11.13,9.02-20.15,20.15-20.15s20.15,9.02,20.15,20.15
			v69.43h22.75v-69.8C522.74,115.04,503.54,95.83,479.85,95.83z"/>
		<path d="M593.99,98.63c-6.01-3.2-12.86-5.02-20.15-5.02c-23.69,0-42.9,19.21-42.9,42.9v29.13c0,23.69,19.21,42.9,42.9,42.9
			s42.9-19.21,42.9-42.9v-21.37v-7.76V54.81h-22.75V98.63z M593.99,144.26v21c0,11.13-9.02,20.15-20.15,20.15
			s-20.15-9.02-20.15-20.15v-26.14c0-11.13,9.02-20.15,20.15-20.15s20.15,9.02,20.15,20.15V144.26z"/>
		<path d="M669.39,93.6c-23.69,0-42.9,19.21-42.9,42.9v29.13c0,23.69,19.21,42.9,42.9,42.9c7.28,0,14.14-1.82,20.15-5.02v5.02h22.75
			v-42.9v-22.36v-6.76C712.29,112.81,693.09,93.6,669.39,93.6z M689.54,143.26v21.99c0,11.13-9.02,20.15-20.15,20.15
			s-20.15-9.02-20.15-20.15v-26.14c0-11.13,9.02-20.15,20.15-20.15s20.15,9.02,20.15,20.15V143.26z"/>
	</g>
</g>
</svg>
