<svg xmlns="http://www.w3.org/2000/svg" xmlns:xlink="http://www.w3.org/1999/xlink" width="100" zoomAndPan="magnify" viewBox="5 20 65 34" height="100" preserveAspectRatio="xMidYMid meet" version="1.0"><defs><clipPath id="7aa7257db2"><path d="M 7 0.542969 L 19 0.542969 L 19 14 L 7 14 Z M 7 0.542969 " clip-rule="nonzero"/></clipPath><clipPath id="08c92a325c"><path d="M 16 0.542969 L 54 0.542969 L 54 14 L 16 14 Z M 16 0.542969 " clip-rule="nonzero"/></clipPath><clipPath id="0a0ce67584"><path d="M 8 14.453125 L 68.101562 14.453125 L 68.101562 31.148438 L 8 31.148438 Z M 8 14.453125 " clip-rule="nonzero"/></clipPath><clipPath id="b44ebb04a7"><rect x="0" width="69" y="0" height="34"/></clipPath></defs><g transform="matrix(1, 0, 0, 1, 0, 21)"><g clip-path="url(#b44ebb04a7)"><g clip-path="url(#7aa7257db2)"><path fill="#ffffff" d="M 18.144531 1.082031 C 16.941406 -0.0117188 11.335938 0.257812 9.253906 1.03125 C 7.820312 1.625 6.832031 2.699219 7.054688 4.246094 C 7.082031 4.558594 7.183594 4.890625 7.507812 5.003906 C 8.027344 5.199219 9.03125 5.199219 9.566406 5.089844 C 9.808594 5.050781 10.023438 4.839844 9.777344 4.652344 C 9.632812 4.527344 9.339844 4.460938 9.21875 4.382812 C 9.175781 4.355469 9.125 4.316406 9.125 4.261719 C 10.175781 3.269531 15.484375 3.082031 17.046875 3 L 17.214844 3.1875 C 16.480469 4.40625 12.28125 9.453125 11.667969 12.308594 C 11.550781 13.007812 11.476562 13.8125 12.453125 13.660156 C 13.644531 13.328125 14.375 11.863281 14.304688 10.695312 C 14.433594 7.402344 20.203125 4.3125 18.144531 1.082031 Z M 18.144531 1.082031 " fill-opacity="1" fill-rule="evenodd"/></g><g clip-path="url(#08c92a325c)"><path fill="#ffffff" d="M 52.777344 9.730469 C 52.0625 10.527344 51.171875 11.265625 50.160156 11.503906 C 50.050781 11.53125 49.871094 11.554688 49.789062 11.523438 C 49.65625 11.480469 49.75 11.332031 49.960938 11.167969 C 51.742188 9.925781 51.542969 8.222656 51.28125 6.398438 C 51.292969 5.578125 50.582031 5.355469 50.035156 5.894531 C 48.417969 7.890625 44.988281 12.621094 43.613281 11.375 C 43.433594 11.222656 43.292969 10.957031 43.46875 10.765625 C 43.714844 10.472656 44.402344 10.011719 45.011719 9.421875 C 45.488281 8.953125 45.910156 8.4375 46.042969 7.796875 C 46.132812 7.230469 46.023438 6.65625 45.621094 6.375 C 45.222656 6.148438 44.632812 6.417969 43.976562 6.898438 C 43.171875 7.488281 42.277344 8.40625 41.546875 9.132812 C 41.273438 9.390625 40.65625 10.078125 40.40625 10.074219 C 40.296875 10.058594 40.359375 9.890625 40.390625 9.808594 C 41.164062 8.078125 47.03125 2.875 46.40625 1.292969 C 44.902344 -0.179688 39.496094 8.257812 39.175781 9.484375 C 38.898438 10.109375 37.953125 11.132812 37.253906 11.078125 C 36.890625 11.03125 36.851562 10.546875 37.011719 10.21875 C 37.328125 9.472656 38.214844 8.625 38.601562 7.914062 C 38.882812 7.460938 38.859375 6.9375 38.429688 6.636719 C 36.992188 5.984375 35.125 8.785156 34.121094 9.734375 C 33.714844 10.132812 33.441406 10.117188 33.878906 9.476562 C 34.109375 9.140625 34.339844 8.804688 34.570312 8.464844 C 34.777344 8.132812 35.058594 7.835938 35.136719 7.457031 C 35.183594 7 34.527344 7.015625 34.210938 7.058594 C 32.90625 7.277344 31.589844 10.847656 30.226562 10.882812 C 29.875 10.875 29.667969 10.542969 29.707031 10.144531 C 29.800781 9.300781 30.832031 8.671875 30.761719 7.851562 C 30.746094 7.53125 30.578125 7.207031 30.6875 6.886719 C 30.777344 6.628906 31.066406 6.394531 31.078125 6.136719 C 31.097656 5.832031 30.796875 5.625 30.519531 5.542969 C 28.335938 4.859375 24.726562 7.847656 23.980469 9.183594 C 23.800781 9.527344 23.765625 9.8125 23.457031 10.152344 C 22.953125 10.769531 20.957031 11.585938 21.566406 10.125 C 21.960938 9.21875 23.234375 8.292969 23.234375 7.230469 C 23.210938 7.023438 23.113281 6.84375 22.945312 6.730469 C 21.921875 6.050781 19.496094 8.871094 18.558594 9.882812 C 18.445312 10.011719 18.15625 10.199219 18.074219 10.082031 C 18.382812 8.820312 23.054688 3.199219 24.070312 1.871094 C 24.351562 1.554688 24.363281 0.941406 24.136719 0.597656 C 22.496094 -0.628906 17.789062 7.265625 17.191406 8.691406 C 16.800781 9.445312 16.296875 12.390625 17.605469 12.277344 L 17.628906 12.273438 C 17.808594 12.21875 17.972656 12.074219 18.113281 11.9375 C 18.953125 11.078125 19.800781 10.207031 20.640625 9.347656 C 20.785156 9.195312 21.175781 8.824219 20.96875 9.292969 C 20.546875 10.222656 19.304688 11.78125 19.984375 12.535156 C 20.816406 13.34375 22.785156 12.292969 23.394531 11.535156 C 23.820312 10.917969 24.113281 11.253906 24.484375 11.714844 C 25.050781 12.40625 25.226562 12.769531 25.835938 12.433594 C 26.398438 12.113281 26.867188 11.648438 27.351562 11.246094 C 27.648438 10.996094 27.980469 10.683594 28.070312 10.6875 C 28.132812 10.6875 28.117188 10.816406 28.085938 11.035156 C 27.730469 14.078125 30.117188 13.265625 31.496094 11.515625 C 31.664062 11.304688 31.875 11.0625 32.050781 11.441406 C 32.226562 11.773438 32.351562 12.335938 32.765625 12.453125 C 33.964844 12.554688 35.046875 10.671875 35.839844 9.746094 C 35.84375 9.746094 35.84375 9.742188 35.847656 9.738281 C 35.949219 9.5625 36.050781 9.40625 36.152344 9.292969 C 36.191406 9.25 36.332031 9.09375 36.308594 9.164062 C 36.277344 9.234375 36.042969 9.5 35.847656 9.738281 C 35.332031 10.660156 34.933594 12.257812 35.507812 12.792969 C 36.5625 13.507812 37.890625 12.238281 38.660156 11.507812 C 38.832031 11.34375 39.089844 11.140625 39.152344 11.519531 C 39.308594 13.199219 39.972656 12.820312 40.855469 11.660156 C 41.140625 11.304688 41.40625 11.296875 41.664062 11.722656 C 42.058594 12.355469 42.535156 13.148438 43.394531 13.125 C 44.355469 13.125 44.964844 12.476562 45.765625 11.792969 C 45.90625 11.679688 46.101562 11.542969 46.257812 11.554688 C 46.382812 11.5625 46.476562 11.636719 46.570312 11.769531 C 46.792969 12.132812 47.09375 12.542969 47.453125 12.820312 C 49.65625 14.511719 52.796875 10.917969 53.273438 10.125 C 53.328125 9.765625 53.105469 9.382812 52.78125 9.730469 Z M 26.636719 10.578125 C 25.882812 10.996094 25.457031 11.011719 25.457031 11.011719 C 25.457031 11.011719 24.777344 10.070312 26.488281 8.980469 C 28.195312 7.894531 29.578125 7.386719 29.578125 7.386719 C 29.578125 7.386719 27.386719 10.15625 26.636719 10.578125 Z M 41.941406 10.140625 C 41.941406 10.140625 43.453125 8.511719 43.851562 8.257812 C 44.253906 8.003906 45.21875 7.652344 44.441406 8.546875 C 43.664062 9.445312 42.824219 10.285156 42.824219 10.285156 Z M 49.59375 10.285156 C 49.59375 10.285156 48.71875 11.804688 48.5625 11.15625 C 48.40625 10.507812 47.238281 10.140625 47.238281 10.140625 C 47.78125 10.0625 49.394531 7.691406 49.59375 8.113281 C 49.792969 8.535156 49.59375 10.285156 49.59375 10.285156 Z M 49.59375 10.285156 " fill-opacity="1" fill-rule="evenodd"/></g><path fill="#ffffff" d="M 64.757812 5.941406 L 65.34375 6.320312 C 65.460938 6.789062 65.078125 7.035156 65.046875 7.324219 C 65.007812 7.675781 65.332031 8.011719 65.300781 8.308594 C 65.261719 8.671875 64.386719 9.441406 64.246094 9.992188 C 64.144531 10.378906 64.167969 10.761719 64.179688 11.15625 C 65.308594 11.140625 65.878906 9.851562 66.925781 9.707031 L 66.925781 10.578125 C 66.273438 11.074219 65.886719 11.757812 65.257812 12.3125 C 63.492188 13.867188 61.640625 14.175781 62.4375 11.15625 C 61.714844 11.675781 60.496094 13.34375 59.511719 13.15625 C 58.652344 12.992188 58.097656 10.730469 58.273438 9.953125 C 58.617188 8.460938 62.121094 6.285156 63.597656 5.941406 Z M 63.308594 8.113281 C 61.914062 8.488281 59.464844 9.660156 60.136719 11.429688 C 60.746094 11.847656 62.105469 10.03125 62.414062 9.609375 C 62.539062 9.441406 63.402344 8.203125 63.308594 8.113281 Z M 63.308594 8.113281 " fill-opacity="1" fill-rule="nonzero"/><g clip-path="url(#0a0ce67584)"><path fill="#ffffff" d="M 68.644531 26.699219 C 67.65625 27.585938 65.773438 29.132812 65.773438 29.132812 C 65.515625 29.292969 65.363281 29.3125 65.199219 29.132812 C 65.199219 29.132812 64.695312 28.132812 65.773438 27.105469 C 66.941406 25.988281 67.828125 24.617188 67.304688 23.25 C 67.304688 23.25 67.027344 22.742188 66.921875 22.640625 C 64.824219 22.296875 60.691406 28.863281 60.492188 27.972656 C 60.605469 27.066406 61.792969 26.214844 62.515625 25.078125 C 62.960938 24.375 63.558594 23.738281 62.324219 23.453125 C 60.945312 23.335938 60.488281 24.191406 59.835938 25.28125 C 59.410156 25.980469 59.367188 26.734375 58.875 27.308594 C 58.085938 28.230469 57.703125 28.636719 56.710938 28.699219 C 57.492188 27.703125 57.976562 25.886719 58.027344 24.390625 C 57.820312 23.546875 57.605469 24.058594 57.34375 23.863281 C 57.382812 23.464844 58.039062 23.285156 57.363281 22.601562 C 55.917969 21.871094 53.945312 22.796875 52.554688 24.265625 C 51.367188 25.523438 50.640625 27.511719 50.640625 27.511719 C 50.054688 28.640625 48.183594 29.636719 47.308594 29.046875 C 46.960938 28.632812 46.921875 28.484375 47 27.714844 C 47.429688 26.722656 50.949219 24.363281 49.75 22.472656 C 47.761719 22.386719 46.984375 23.988281 45.46875 26.09375 C 45.148438 26.539062 45.160156 27.066406 44.894531 27.511719 C 44.347656 28.429688 42.664062 30.21875 41.789062 29.425781 C 41.246094 28.933594 41.105469 27.984375 41.445312 27.308594 C 41.886719 26.433594 43.082031 25.714844 44.507812 23.863281 C 46.375 21.441406 48.171875 17.21875 46.695312 15.84375 C 44.757812 16.757812 42.953125 19.414062 41.0625 22.238281 C 40.003906 23.820312 39.664062 25.617188 39.144531 27.105469 C 38.671875 28.46875 37.199219 29.671875 36.082031 29.746094 C 35.164062 28.84375 34.90625 28.082031 35.507812 27.105469 C 36.144531 26.074219 37.339844 25.339844 38.953125 23.050781 C 40.460938 20.910156 41.632812 18.320312 40.90625 16.109375 C 40.367188 15.050781 37.4375 18.886719 35.507812 21.425781 C 33.460938 24.121094 33.015625 27.714844 33.015625 27.714844 C 32.589844 28.179688 29.902344 30.792969 29.332031 29.03125 C 29.203125 28.644531 28.949219 28.195312 29.566406 27.511719 C 30.898438 26.050781 33.441406 23.015625 31.617188 22.605469 C 30.433594 22.332031 28.949219 24.101562 28.035156 25.484375 C 27.433594 26.398438 27.601562 27.503906 27.078125 28.324219 C 26.523438 29.191406 26.007812 29.285156 25.355469 29.945312 C 24.699219 30.609375 23.917969 31.085938 23.054688 30.960938 C 21.425781 27.574219 26.863281 22.125 28.953125 18.582031 C 29.292969 18.003906 28.714844 16.378906 27.800781 15.914062 C 26.847656 15.742188 21.339844 22.1875 20.617188 23.066406 C 20.261719 23.429688 19.910156 23.796875 19.554688 24.164062 C 20.167969 22.683594 23.9375 17.21875 21.90625 15.746094 C 20.4375 14.828125 15.621094 20.960938 14.957031 21.894531 C 14.671875 22.269531 14.386719 22.644531 14.101562 23.023438 C 14.984375 21.355469 17.691406 16.320312 15.203125 14.933594 C 13.71875 14.113281 11.664062 16.242188 10.273438 16.648438 C 10.511719 16.25 10.75 15.847656 10.992188 15.449219 C 10.984375 15.441406 10.976562 15.433594 10.96875 15.429688 C 9.625 15.429688 7.726562 19.734375 8.652344 20.707031 C 10.40625 20.273438 12.191406 18.59375 14.050781 17.894531 C 14.960938 19.917969 10.472656 25.800781 8.878906 29.136719 C 8.320312 30.308594 8.957031 31.144531 9.648438 31.976562 C 9.945312 32.105469 10.414062 31.570312 10.414062 31.570312 C 10.714844 31.125 11.253906 30.125 11.316406 30.140625 C 12.335938 28.300781 18.542969 18.792969 19.800781 18.792969 C 20.121094 20.777344 11.296875 30.847656 14.796875 32.734375 C 15.820312 32.757812 23.261719 20.710938 24.886719 20.804688 C 24.484375 22.449219 18.855469 27.425781 20.375 32.179688 C 21.660156 36.214844 26.859375 29.835938 27.269531 29.667969 C 27.578125 30.308594 27.496094 31.28125 28.199219 31.585938 C 29.835938 32.441406 32.175781 30.5 32.847656 29.050781 C 34.980469 35.160156 36.582031 29.992188 38.996094 29.113281 C 38.9375 30.152344 39.609375 31.234375 40.128906 31.835938 C 41.835938 32.816406 44.007812 30.375 44.765625 29.09375 C 44.765625 29.09375 44.910156 29.011719 44.984375 28.96875 C 44.984375 28.984375 44.894531 27.308594 44.988281 29.015625 C 45.082031 30.722656 45.945312 31.777344 46.804688 31.777344 C 48.058594 31.777344 49.304688 30.511719 49.679688 30.152344 C 50.335938 29.40625 50.332031 29.25 50.503906 29.316406 C 50.523438 29.320312 50.808594 29.339844 50.828125 29.34375 C 50.953125 30.570312 51.144531 30.785156 51.785156 31.574219 C 52.421875 32.027344 55.0625 31.769531 55.785156 30.046875 C 56.820312 30.332031 57.984375 29.519531 58.679688 28.734375 C 58.683594 29.371094 58.730469 30.507812 59.445312 31.371094 C 59.445312 31.414062 60.25 31.511719 60.980469 30.355469 C 62.429688 28.066406 63.523438 27.511719 64.425781 26.300781 C 64.175781 26.753906 61.136719 29.804688 63.492188 31.964844 C 64.648438 32.214844 65.335938 31.261719 66.628906 29.914062 C 68.726562 27.726562 68.777344 26.773438 68.640625 26.707031 Z M 43.550781 21.222656 C 44.554688 19.742188 45.660156 18.179688 45.660156 18.179688 C 45.660156 18.179688 44.988281 20.914062 44.316406 22.035156 C 43.648438 23.152344 42.113281 24.75 41.828125 25.078125 C 41.828125 25.078125 42.546875 22.699219 43.550781 21.222656 Z M 37.421875 21.425781 C 38.421875 19.96875 39.722656 18.382812 39.722656 18.382812 C 39.722656 18.382812 39.097656 20.085938 38.953125 20.613281 C 38.8125 21.144531 36.449219 24.597656 35.890625 25.078125 C 35.890625 25.078125 36.425781 22.878906 37.421875 21.425781 Z M 54.855469 29.132812 C 54.789062 29.410156 53.332031 30.085938 52.746094 29.945312 C 52.160156 29.804688 52.171875 28.652344 53.128906 27.105469 C 54.089844 25.558594 55.8125 24.875 55.8125 24.875 C 54.523438 27.328125 54.917969 28.859375 54.855469 29.132812 Z M 50.640625 21.832031 C 52.078125 21.121094 52.171875 19.597656 52.171875 19.597656 C 52.171875 19.597656 51.902344 17.539062 50.066406 19.800781 C 48.226562 22.066406 50.640625 21.832031 50.640625 21.832031 Z M 33.015625 22.035156 C 33.941406 21.519531 34.296875 19.921875 34.355469 19.800781 C 34.417969 19.683594 34.257812 18.734375 33.207031 18.992188 C 33.207031 18.992188 32.046875 19.910156 31.867188 20.613281 C 31.6875 21.316406 31.925781 22.640625 33.015625 22.035156 Z M 33.015625 22.035156 " fill-opacity="1" fill-rule="evenodd"/></g></g></g></svg>