<?xml version="1.0" encoding="UTF-8"?>
<svg id="Layer_1" data-name="Layer 1" xmlns="http://www.w3.org/2000/svg" viewBox="333 648 832 210">
  <defs>
    <style>
      .cls-1 {
        fill: #fff;
      }
    </style>
  </defs>
  <polygon class="cls-1" points="338.17 652.25 507.67 652.25 548.57 778.51 592.27 652.25 635.98 652.25 679.68 778.51 694.46 733.42 741.54 733.57 703.22 851.63 659.51 851.63 613.66 723.03 568.83 851.63 524.38 851.63 473.58 694.27 446.31 694.27 446.31 851.63 401.11 851.63 401.11 694.65 338.17 694.65 338.17 652.25"/>
  <polygon class="cls-1" points="780.44 760.88 780.44 652.25 869 652.25 914.7 735.66 959.55 652.25 1011.49 652.25 935.7 783.57 892.28 783.57 826.43 668.43 826.43 851.63 780.44 851.63 780.44 760.88"/>
  <path class="cls-1" d="M1128.05,845.25c-24.95,10.76-59.72,10.54-84.88-.1s-38.85-33.32-37.96-59.37l44.32.07c-.44,11.85,6.16,21.75,16.89,26.56,17.4,7.1,45.9,4.05,49.23-13.37,4.26-22.29-24.72-28.66-45.12-33.24-33.27-7.48-63.5-23.2-63.84-60.06-.19-21.61,10.46-40.32,30.03-50,24.63-12.18,60.49-12.42,85.53-1.05,22.94,10.42,36.36,32.33,35.72,57.47l-43.43-.03c.28-12.61-7.11-23.26-19.36-26.72-17.82-5.04-41.84-.65-44.19,16.23-2.48,17.86,18.38,23.36,34.59,28.16l34.81,10.3c10.88,3.22,20.2,9.72,28.17,17.82,9.61,9.77,13.2,22.52,13.26,36,.11,23.11-12.58,42.17-33.77,51.32Z"/>
  <rect class="cls-1" x="927.57" y="783.57" width="42.02" height="70.04"/>
  <polygon class="cls-1" points="741.54 733.57 780.3 733.57 800.1 652.25 761.63 652.25 741.54 733.57"/>
</svg>
