<svg xmlns="http://www.w3.org/2000/svg" xmlns:xlink="http://www.w3.org/1999/xlink" width="500" zoomAndPan="magnify" viewBox="65 84 244 210" height="500" preserveAspectRatio="xMidYMid meet" version="1.0"><defs><clipPath id="388b3f3ca0"><path d="M 73.203125 91.78125 L 301.757812 91.78125 L 301.757812 283.246094 L 73.203125 283.246094 Z M 73.203125 91.78125 " clip-rule="nonzero"/></clipPath><clipPath id="e290fd8b17"><path d="M 265.726562 198.144531 C 279.3125 168.757812 287.988281 136.941406 292.851562 104.996094 C 292.914062 104.59375 292.734375 104.320312 292.578125 104.160156 C 292.378906 103.964844 292.007812 103.871094 291.703125 103.988281 L 286.855469 105.835938 C 286.433594 106 286.175781 106.28125 286.113281 106.804688 C 282.445312 137.679688 275.625 168.496094 265.101562 197.761719 C 265.015625 197.996094 265.167969 198.179688 265.242188 198.25 C 265.320312 198.320312 265.617188 198.386719 265.730469 198.144531 M 199.535156 243.109375 C 202.035156 245.21875 205.746094 244.957031 207.890625 242.585938 C 212.386719 237.601562 216.320312 232.230469 220.019531 226.613281 C 224.410156 219.941406 228.195312 213.03125 231.761719 205.898438 C 233.179688 203.074219 232.554688 199.601562 229.796875 197.835938 C 218.28125 190.460938 206.40625 183.664062 194.261719 177.285156 C 182.320312 171.011719 170.183594 165.25 157.851562 159.910156 C 156.949219 159.519531 156.53125 158.699219 156.734375 157.894531 C 156.9375 157.078125 157.75 156.402344 158.730469 156.648438 C 185.039062 163.191406 209.972656 171.675781 234.714844 182.757812 C 237.929688 184.199219 241.722656 182.589844 242.910156 179.308594 C 247.535156 166.554688 251.136719 153.558594 254.117188 140.332031 C 254.640625 138.023438 254.027344 135.777344 252.332031 134.230469 C 250.675781 132.71875 248.285156 132.175781 246.105469 133.003906 L 239.160156 135.644531 C 238.542969 135.878906 237.878906 135.6875 237.449219 135.289062 C 237.015625 134.878906 236.804688 134.265625 236.964844 133.585938 C 238.351562 127.695312 239.492188 121.847656 240.507812 115.878906 C 240.664062 114.964844 241.261719 114.246094 242.144531 113.90625 L 299.46875 91.898438 C 300.0625 91.667969 300.601562 91.796875 301.058594 92.121094 C 301.449219 92.398438 301.828125 92.921875 301.746094 93.617188 C 297.148438 132.535156 286.714844 172.453125 269.507812 207.804688 C 264.714844 217.652344 259.332031 227.183594 253.296875 236.320312 C 241.46875 254.242188 226.109375 271.714844 207.660156 282.929688 C 206.882812 283.402344 205.988281 283.304688 205.371094 282.574219 C 198.503906 274.417969 191.460938 266.40625 184.183594 258.550781 C 173.851562 247.394531 163.292969 236.644531 152.289062 226.121094 C 127.4375 202.351562 101.195312 180.246094 73.636719 159.746094 C 73.46875 159.621094 73.410156 159.570312 73.339844 159.503906 C 73.199219 159.382812 73.1875 159.210938 73.46875 159.0625 C 107.230469 176.558594 139.488281 196.734375 169.945312 219.550781 C 180.085938 227.148438 189.835938 234.925781 199.535156 243.109375 " clip-rule="nonzero"/></clipPath><clipPath id="e807189397"><path d="M 0.203125 0.78125 L 228.757812 0.78125 L 228.757812 192.246094 L 0.203125 192.246094 Z M 0.203125 0.78125 " clip-rule="nonzero"/></clipPath><clipPath id="e752ad6d1b"><path d="M 192.726562 107.144531 C 206.3125 77.757812 214.988281 45.941406 219.851562 13.996094 C 219.914062 13.59375 219.734375 13.320312 219.578125 13.160156 C 219.378906 12.964844 219.007812 12.871094 218.703125 12.988281 L 213.855469 14.835938 C 213.433594 15 213.175781 15.28125 213.113281 15.804688 C 209.445312 46.679688 202.625 77.496094 192.101562 106.761719 C 192.015625 106.996094 192.167969 107.179688 192.242188 107.25 C 192.320312 107.320312 192.617188 107.386719 192.730469 107.144531 M 126.535156 152.109375 C 129.035156 154.21875 132.746094 153.957031 134.890625 151.585938 C 139.386719 146.601562 143.320312 141.230469 147.019531 135.613281 C 151.410156 128.941406 155.195312 122.03125 158.761719 114.898438 C 160.179688 112.074219 159.554688 108.601562 156.796875 106.835938 C 145.28125 99.460938 133.40625 92.664062 121.261719 86.285156 C 109.320312 80.011719 97.183594 74.25 84.851562 68.910156 C 83.949219 68.519531 83.53125 67.699219 83.734375 66.894531 C 83.9375 66.078125 84.75 65.402344 85.730469 65.648438 C 112.039062 72.191406 136.972656 80.675781 161.714844 91.757812 C 164.929688 93.199219 168.722656 91.589844 169.910156 88.308594 C 174.535156 75.554688 178.136719 62.558594 181.117188 49.332031 C 181.640625 47.023438 181.027344 44.777344 179.332031 43.230469 C 177.675781 41.71875 175.285156 41.175781 173.105469 42.003906 L 166.160156 44.644531 C 165.542969 44.878906 164.878906 44.6875 164.449219 44.289062 C 164.015625 43.878906 163.804688 43.265625 163.964844 42.585938 C 165.351562 36.695312 166.492188 30.847656 167.507812 24.878906 C 167.664062 23.964844 168.261719 23.246094 169.144531 22.90625 L 226.46875 0.898438 C 227.0625 0.667969 227.601562 0.796875 228.058594 1.121094 C 228.449219 1.398438 228.828125 1.921875 228.746094 2.617188 C 224.148438 41.535156 213.714844 81.453125 196.507812 116.804688 C 191.714844 126.652344 186.332031 136.183594 180.296875 145.320312 C 168.46875 163.242188 153.109375 180.714844 134.660156 191.929688 C 133.882812 192.402344 132.988281 192.304688 132.371094 191.574219 C 125.503906 183.417969 118.460938 175.40625 111.183594 167.550781 C 100.851562 156.394531 90.292969 145.644531 79.289062 135.121094 C 54.4375 111.351562 28.195312 89.246094 0.636719 68.746094 C 0.46875 68.621094 0.410156 68.570312 0.339844 68.503906 C 0.199219 68.382812 0.1875 68.210938 0.46875 68.0625 C 34.230469 85.558594 66.488281 105.734375 96.945312 128.550781 C 107.085938 136.148438 116.835938 143.925781 126.535156 152.109375 " clip-rule="nonzero"/></clipPath><clipPath id="6d96b0126a"><rect x="0" width="229" y="0" height="193"/></clipPath></defs><g clip-path="url(#388b3f3ca0)"><g clip-path="url(#e290fd8b17)"><g transform="matrix(1, 0, 0, 1, 73, 91)"><g clip-path="url(#6d96b0126a)"><g clip-path="url(#e807189397)"><g clip-path="url(#e752ad6d1b)"><path fill="#000000" d="M 0.242188 0.78125 L 228.757812 0.78125 L 228.757812 192.207031 L 0.242188 192.207031 Z M 0.242188 0.78125 " fill-opacity="1" fill-rule="nonzero"/></g></g></g></g></g></g></svg>